<?xml version="1.0" encoding="UTF-8" ?>
<!DOCTYPE svg PUBLIC "-//W3C//DTD SVG 1.1//EN" "http://www.w3.org/Graphics/SVG/1.1/DTD/svg11.dtd">
<svg width="513pt" height="160pt" viewBox="0 0 513 160" version="1.1" xmlns="http://www.w3.org/2000/svg">
<g id="#ffffffff">
</g>
<g id="#000000ff">
<path fill="#f6ff81" opacity="1.00" d=" M 82.45 24.75 C 91.70 23.42 101.40 25.02 109.62 29.51 C 116.54 33.28 121.34 39.71 127.05 44.96 C 133.42 50.73 137.45 58.68 139.76 66.86 C 141.96 77.35 140.23 88.55 134.60 97.71 C 131.59 104.34 125.29 108.31 120.49 113.48 C 115.60 118.61 109.57 122.70 102.90 125.15 C 87.30 131.14 68.43 125.97 57.44 113.56 C 51.32 107.07 43.94 101.29 40.31 92.91 C 36.82 85.45 37.02 77.04 37.57 69.01 C 38.77 60.37 43.23 52.44 49.05 46.05 C 55.89 39.28 62.30 31.51 71.44 27.76 C 74.97 26.32 78.71 25.47 82.45 24.75 M 86.69 38.87 C 83.89 40.16 81.71 42.41 79.57 44.56 C 70.99 53.31 62.22 61.88 53.59 70.59 C 50.70 73.27 50.50 78.72 53.68 81.25 C 61.04 87.90 67.86 95.12 74.92 102.09 C 78.63 105.62 81.36 110.29 85.86 112.94 C 88.37 113.77 91.81 114.00 93.65 111.69 C 103.25 101.29 113.58 91.59 123.49 81.48 C 124.69 80.08 125.99 78.60 126.40 76.75 C 126.73 74.29 124.77 72.36 123.36 70.60 C 119.32 66.32 114.99 62.33 110.88 58.12 C 105.23 52.50 100.55 45.87 94.19 40.98 C 92.06 39.53 89.36 37.75 86.69 38.87 Z" />
<path fill="#ffffff" opacity="1.00" d=" M 387.67 39.68 C 392.02 39.74 396.38 39.42 400.72 39.73 C 402.21 39.63 403.00 41.08 403.34 42.32 C 405.34 50.83 405.81 59.65 407.97 68.11 C 410.53 58.99 408.74 49.42 409.29 40.10 C 413.73 39.46 418.20 39.93 422.63 40.49 C 422.64 63.86 422.54 87.23 422.68 110.61 C 417.80 110.84 412.64 112.06 407.97 110.04 C 405.95 101.38 405.68 92.34 402.99 83.80 C 400.34 92.49 402.14 101.72 401.71 110.66 C 397.00 111.06 392.27 111.22 387.56 110.68 C 387.82 87.01 387.60 63.34 387.67 39.68 Z" />
<path fill="#ffffff" opacity="1.00" d=" M 213.60 40.99 C 217.89 38.54 223.15 39.94 227.82 40.32 C 230.68 48.72 230.25 57.96 233.94 66.10 C 235.23 57.62 234.20 48.98 234.47 40.43 C 239.12 39.47 243.86 39.72 248.49 40.58 C 248.49 63.89 248.36 87.22 248.56 110.54 C 243.82 111.10 239.05 111.25 234.31 110.63 C 232.37 101.89 230.61 93.09 229.41 84.22 C 228.95 84.31 228.03 84.50 227.57 84.60 C 227.37 93.25 227.54 101.89 227.45 110.54 C 222.80 110.78 218.14 110.79 213.49 110.62 C 213.52 87.41 213.27 64.19 213.60 40.99 Z" />
<path fill="#ffffff" opacity="1.00" d=" M 254.59 40.25 C 263.85 40.85 273.11 39.48 282.34 40.15 C 282.62 44.63 282.62 49.14 282.28 53.62 C 277.96 53.48 273.63 53.52 269.37 54.29 C 268.51 58.44 268.71 62.68 269.47 66.83 C 273.48 67.60 277.58 67.59 281.65 67.45 C 282.47 71.79 282.54 76.25 281.83 80.62 C 277.71 80.51 273.56 80.58 269.49 81.28 C 269.33 86.65 268.38 92.04 269.53 97.37 C 273.73 97.32 277.95 97.07 282.13 97.49 C 285.15 100.95 283.06 106.35 283.59 110.61 C 273.87 110.80 264.14 110.81 254.42 110.60 C 254.46 87.15 254.13 63.69 254.59 40.25 Z" />
<path fill="#ffffff" opacity="1.00" d=" M 307.91 40.15 C 310.93 39.82 313.97 39.73 317.00 40.06 C 322.32 40.57 327.67 40.06 332.99 40.46 C 337.31 40.72 340.46 44.80 341.17 48.81 C 341.90 53.09 341.71 57.47 341.61 61.80 C 341.62 65.66 339.06 68.76 337.08 71.85 C 343.96 77.81 343.00 87.61 342.47 95.77 C 341.78 99.72 341.09 104.14 338.13 107.09 C 335.68 109.36 332.46 110.94 329.06 110.75 C 321.99 110.75 314.92 110.94 307.85 110.82 C 307.63 87.27 307.51 63.70 307.91 40.15 M 322.43 50.89 C 321.64 56.11 321.50 61.41 322.33 66.63 C 323.79 66.58 325.25 66.53 326.72 66.49 C 327.68 62.11 328.05 57.52 327.29 53.07 C 326.70 50.87 324.17 51.27 322.43 50.89 M 322.45 77.21 C 321.37 84.43 321.50 91.79 322.57 99.01 C 324.61 98.35 326.63 97.63 328.63 96.87 C 328.54 91.37 329.05 85.84 328.42 80.37 C 328.03 77.50 324.58 77.72 322.45 77.21 Z" />
<path fill="#ffffff" opacity="1.00" d=" M 352.57 40.22 C 357.71 39.84 362.86 40.45 368.00 39.99 C 370.82 39.70 373.65 40.02 376.46 40.33 C 377.43 47.27 378.37 54.24 378.55 61.26 C 378.86 68.20 380.49 75.01 380.63 81.96 C 381.05 91.63 383.00 101.16 383.35 110.83 C 378.74 111.45 374.10 111.07 369.52 110.45 C 369.13 106.77 368.71 103.09 368.47 99.40 C 366.27 99.42 364.06 99.37 361.87 99.60 C 359.41 102.68 360.05 107.06 359.50 110.77 C 354.86 110.76 350.23 110.76 345.60 110.76 C 345.61 104.10 347.45 97.63 347.62 90.99 C 348.07 81.02 349.95 71.20 350.41 61.24 C 350.66 54.19 352.32 47.28 352.57 40.22 M 364.11 59.41 C 363.23 62.89 362.43 66.42 362.46 70.03 C 362.51 76.00 361.43 81.93 361.73 87.90 C 363.60 87.72 365.48 87.63 367.33 87.25 C 367.85 83.15 366.75 79.08 366.63 74.98 C 366.33 69.74 367.16 64.05 364.11 59.41 Z" />
<path fill="#ffffff" opacity="1.00" d=" M 181.27 41.00 C 186.65 39.64 192.45 40.06 197.93 40.68 C 202.81 42.60 206.85 47.55 206.69 52.95 C 206.81 66.64 206.69 80.33 206.74 94.02 C 206.99 99.89 204.46 106.32 199.13 109.26 C 195.49 111.49 191.01 110.76 186.95 110.82 C 181.98 111.10 177.78 107.65 175.15 103.75 C 172.96 100.62 173.40 96.60 173.27 92.99 C 173.36 79.64 173.20 66.30 173.33 52.95 C 173.12 47.76 176.94 43.34 181.27 41.00 M 189.00 52.55 C 186.87 54.00 187.48 56.77 187.28 58.97 C 187.33 69.65 187.35 80.34 187.27 91.02 C 187.40 93.35 187.00 96.02 188.77 97.88 C 191.08 98.31 193.03 96.34 192.65 94.04 C 192.73 81.35 192.77 68.64 192.63 55.95 C 192.99 53.98 191.12 51.53 189.00 52.55 Z" />
<path fill="#ffffff" opacity="1.00" d=" M 429.28 40.61 C 433.67 40.26 438.09 40.26 442.49 40.47 C 442.69 48.76 442.32 57.07 442.64 65.36 C 446.20 57.46 447.99 48.91 449.72 40.46 C 454.32 40.30 458.94 40.26 463.55 40.51 C 461.63 50.14 458.67 59.53 456.63 69.14 C 455.25 76.36 458.95 83.13 460.16 90.11 C 461.36 97.28 463.95 104.14 465.04 111.33 C 460.46 111.23 455.88 111.23 451.30 111.36 C 447.74 102.10 448.18 91.66 443.50 82.82 C 443.24 92.10 443.65 101.40 443.22 110.68 C 438.60 110.78 433.97 110.79 429.35 110.67 C 429.35 87.32 429.50 63.96 429.28 40.61 Z" />
</g>
</svg>
