<?xml version="1.0" encoding="UTF-8" ?>
<!DOCTYPE svg PUBLIC "-//W3C//DTD SVG 1.1//EN" "http://www.w3.org/Graphics/SVG/1.1/DTD/svg11.dtd">
<svg width="212pt" height="235pt" viewBox="0 0 212 235" version="1.1" xmlns="http://www.w3.org/2000/svg">
<g id="#f8f8f8ff">
</g>
<g id="#343434ff">
<path fill="#fff" opacity="1.00" d=" M 95.39 7.48 C 97.95 6.63 100.64 7.31 103.23 7.62 C 121.12 8.20 138.65 13.90 154.07 22.86 C 183.66 40.21 204.28 71.90 208.03 106.00 C 208.73 113.10 209.50 120.28 208.48 127.39 C 206.73 158.68 190.66 188.74 165.98 207.98 C 147.93 222.14 125.37 230.64 102.41 231.49 C 97.48 232.69 91.00 231.44 88.67 226.44 C 85.81 221.57 89.02 214.86 94.16 213.16 C 96.65 212.21 99.38 212.64 101.98 212.52 C 123.99 211.87 145.11 202.00 161.06 187.06 C 180.99 167.89 192.37 139.61 189.58 111.96 C 188.45 91.84 179.43 72.70 166.47 57.50 C 149.23 38.40 123.96 25.91 97.98 26.46 C 93.96 26.67 89.98 24.24 88.51 20.46 C 85.66 15.21 89.72 8.44 95.39 7.48 Z" />
<path fill="#fff" opacity="1.00" d=" M 90.38 74.02 C 90.05 68.89 95.27 64.96 100.06 64.96 C 103.71 65.17 106.46 67.66 108.66 70.35 C 119.27 82.72 129.68 95.26 140.42 107.52 C 143.22 111.04 147.02 114.29 147.64 119.00 C 147.72 123.92 143.72 127.40 140.89 130.94 C 130.32 143.04 120.00 155.35 109.59 167.59 C 107.49 169.77 105.65 172.62 102.57 173.45 C 97.88 175.29 92.28 172.12 90.62 167.54 C 90.07 164.41 90.15 160.90 92.40 158.42 C 100.44 148.54 109.10 139.17 117.05 129.22 C 115.38 129.04 113.71 128.83 112.03 128.81 C 78.03 128.83 44.03 128.82 10.03 128.82 C 4.77 129.26 0.43 124.03 0.80 119.00 C 0.99 114.31 5.13 109.76 10.03 110.18 C 41.35 110.17 72.68 110.18 104.00 110.18 C 108.34 110.15 112.71 110.38 117.03 109.82 C 110.82 101.80 103.85 94.40 97.42 86.56 C 94.49 82.82 89.77 79.33 90.38 74.02 Z" />
</g>
</svg>
