<?xml version="1.0" encoding="UTF-8" ?>
<!DOCTYPE svg PUBLIC "-//W3C//DTD SVG 1.1//EN" "http://www.w3.org/Graphics/SVG/1.1/DTD/svg11.dtd">
<svg width="1024pt" height="1024pt" viewBox="0 0 1024 1024" version="1.1" xmlns="http://www.w3.org/2000/svg">
<g id="#000000ff">
<path fill="#000000" transform="translate(400, 0) rotate(45 100 100)" opacity="1.00" d=" M 354.87 224.86 C 362.87 217.24 373.94 213.16 384.95 213.34 C 512.32 213.33 639.69 213.33 767.06 213.34 C 776.88 213.21 786.77 216.37 794.46 222.55 C 804.86 230.66 810.94 243.78 810.66 256.94 C 810.68 379.30 810.66 501.65 810.66 624.00 C 810.39 633.56 811.67 643.40 808.71 652.67 C 804.93 665.09 795.11 675.49 782.92 679.94 C 772.92 683.70 761.50 683.50 751.64 679.37 C 739.38 674.35 729.77 663.29 726.65 650.39 C 724.99 644.06 725.36 637.47 725.33 631.00 C 725.34 579.67 725.33 528.33 725.33 477.00 C 725.24 437.83 725.53 398.65 725.18 359.48 C 712.53 371.38 700.56 384.00 688.17 396.17 C 554.33 530.00 420.50 663.85 286.66 797.67 C 280.32 804.14 271.97 808.64 262.99 810.04 C 250.13 812.27 236.35 808.13 226.89 799.13 C 218.31 791.23 213.30 779.65 213.38 768.00 C 213.28 756.56 218.13 745.28 226.34 737.35 C 369.16 594.50 512.01 451.68 654.84 308.83 C 658.14 305.57 661.48 302.34 664.52 298.83 C 617.69 298.45 570.84 298.78 524.00 298.67 C 477.65 298.66 431.30 298.68 384.95 298.66 C 375.36 298.78 365.71 295.77 358.12 289.86 C 347.95 282.20 341.58 269.77 341.39 257.04 C 341.02 245.04 346.03 232.99 354.87 224.86 Z" />
</g>
</svg>
