<?xml version="1.0" encoding="UTF-8" ?>
<!DOCTYPE svg PUBLIC "-//W3C//DTD SVG 1.1//EN" "http://www.w3.org/Graphics/SVG/1.1/DTD/svg11.dtd">
<svg width="1024pt" height="1024pt" viewBox="0 0 1024 1024" version="1.1" xmlns="http://www.w3.org/2000/svg">
<g id="#feca29ff">
</g>
<g id="#fefefeff">
<path fill="#000" opacity="1.00" d=" M 457.75 340.71 C 462.61 329.30 474.61 321.46 487.02 321.62 C 548.01 321.60 608.99 321.62 669.98 321.62 C 677.32 321.57 684.68 324.00 690.39 328.64 C 698.00 334.67 702.53 344.31 702.38 354.02 C 702.40 414.67 702.37 475.33 702.39 535.98 C 702.57 543.62 700.17 551.35 695.26 557.26 C 688.43 565.89 676.92 570.37 666.04 568.83 C 650.98 567.06 638.55 553.23 638.42 538.06 C 638.33 508.71 638.42 479.35 638.38 450.00 C 638.33 443.85 638.59 437.69 638.16 431.56 C 629.21 439.44 621.21 448.35 612.63 456.63 C 535.79 533.45 458.96 610.29 382.12 687.12 C 379.45 689.77 376.87 692.53 374.04 695.01 C 367.77 700.48 359.28 703.28 350.98 702.67 C 340.26 702.00 330.13 695.44 325.11 685.95 C 320.04 676.81 319.94 665.13 324.93 655.94 C 327.61 650.55 332.26 646.61 336.41 642.40 C 417.74 561.07 499.07 479.73 580.40 398.40 C 584.42 394.20 588.88 390.42 592.48 385.83 C 556.99 385.29 521.49 385.81 486.00 385.57 C 477.37 385.26 468.84 381.40 463.16 374.85 C 454.89 365.82 452.65 351.86 457.75 340.71 Z" />
</g>
</svg>
